<?xml version="1.0" encoding="UTF-8"?>
<svg version="1.1" xmlns="http://www.w3.org/2000/svg" width="38" height="43">
<path d="M0 0 C2.475 0.495 2.475 0.495 5 1 C4.71632132 3.23019727 4.42272612 5.45913454 4.125 7.6875 C3.96257813 8.92886719 3.80015625 10.17023437 3.6328125 11.44921875 C3.07521631 14.57795295 2.30991877 17.12148102 1 20 C2.03060547 19.98259766 2.03060547 19.98259766 3.08203125 19.96484375 C3.98308594 19.95582031 4.88414063 19.94679688 5.8125 19.9375 C6.70582031 19.92589844 7.59914063 19.91429688 8.51953125 19.90234375 C11 20 11 20 14 21 C14 22.32 14 23.64 14 25 C12.99839844 24.979375 11.99679688 24.95875 10.96484375 24.9375 C3.38196308 24.78175496 3.38196308 24.78175496 -3.30859375 27.77734375 C-4.41718452 29.19316521 -5.49081628 30.63722782 -6.5234375 32.109375 C-8 34 -8 34 -11.625 35.6875 C-15 36 -15 36 -17.9375 35 C-20 33 -20 33 -20.5625 30.0625 C-19.84933832 26.17973084 -19.25538234 25.247764 -16 23 C-8.01716738 20 -8.01716738 20 -4 20 C-2.68 13.4 -1.36 6.8 0 0 Z M-15 29 C-15 29.66 -15 30.32 -15 31 C-11.34683329 29.75023244 -10.21934164 29.32901247 -8 26 C-10.94271444 26 -12.61500243 27.36815955 -15 29 Z " fill="#29C893" transform="translate(22,2)"/>
</svg>
